<?xml version="1.0" standalone="no"?><svg xmlns="http://www.w3.org/2000/svg" viewBox="0 0 1440 320"><path fill="#c6414c" fill-opacity="0.75" d="M0,64L34.3,101.3C68.6,139,137,213,206,224C274.3,235,343,181,411,181.3C480,181,549,235,617,240C685.7,245,754,203,823,192C891.4,181,960,203,1029,213.3C1097.1,224,1166,224,1234,213.3C1302.9,203,1371,181,1406,170.7L1440,160L1440,0L1405.7,0C1371.4,0,1303,0,1234,0C1165.7,0,1097,0,1029,0C960,0,891,0,823,0C754.3,0,686,0,617,0C548.6,0,480,0,411,0C342.9,0,274,0,206,0C137.1,0,69,0,34,0L0,0Z"></path></svg>