<?xml version="1.0" standalone="no"?><svg xmlns="http://www.w3.org/2000/svg" viewBox="0 0 1440 320"><path fill="#c6414c" fill-opacity="0.75" d="M0,64L34.3,101.3C68.6,139,137,213,206,224C274.3,235,343,181,411,181.3C480,181,549,235,617,240C685.7,245,754,203,823,192C891.4,181,960,203,1029,213.3C1097.1,224,1166,224,1234,213.3C1302.9,203,1371,181,1406,170.7L1440,160L1440,320L1405.7,320C1371.4,320,1303,320,1234,320C1165.7,320,1097,320,1029,320C960,320,891,320,823,320C754.3,320,686,320,617,320C548.6,320,480,320,411,320C342.9,320,274,320,206,320C137.1,320,69,320,34,320L0,320Z"></path></svg>